# xmcd
#
# Track frame offsets: 
#        150
#        20707
#        40601
#        60241
#        76662
#        93310
#        112295
#        132885
#        153863
#        174965
#        200010
#        220675
#
# Disc length: 3259 seconds
#
# Revision: 0
# Processed by: cddbd v1.5.2PL0 Copyright (c) Steve Scherf et al.
# Submitted via: ExactAudioCopyFreeDBPlugin 1.0
#
DISCID=920cb90c
DTITLE=麻生夏子 - My Starlit Point
DYEAR=2014
DGENRE=JPop
TTITLE0=My Starlit Point
TTITLE1=Merry-go-round
TTITLE2=Parade!
TTITLE3=Fighting Growing Diary
TTITLE4=CROSS x OVER SENSATION
TTITLE5=私色クローズ
TTITLE6=Lovely Girls Anthem
TTITLE7=MoonRise Romance
TTITLE8=不安定な惑星
TTITLE9=ICE NINE
TTITLE10=You're my brightness
TTITLE11=Never Ending Voyage
EXTD=
EXTT0=
EXTT1=
EXTT2=
EXTT3=
EXTT4=
EXTT5=
EXTT6=
EXTT7=
EXTT8=
EXTT9=
EXTT10=
EXTT11=
PLAYORDER=
